M48
; DRILL file {KiCad 9.0.4-9.0.4-0~ubuntu22.04.1} date 2025-10-03T17:43:03+0200
; FORMAT={-:-/ absolute / inch / decimal}
; #@! TF.CreationDate,2025-10-03T17:43:03+02:00
; #@! TF.GenerationSoftware,Kicad,Pcbnew,9.0.4-9.0.4-0~ubuntu22.04.1
; #@! TF.FileFunction,Plated,1,4,PTH
FMAT,2
INCH
; #@! TA.AperFunction,Plated,PTH,ViaDrill
T1C0.0138
; #@! TA.AperFunction,Plated,PTH,ComponentDrill
T2C0.0157
; #@! TA.AperFunction,Plated,PTH,ComponentDrill
T3C0.0256
; #@! TA.AperFunction,Plated,PTH,ComponentDrill
T4C0.0280
; #@! TA.AperFunction,Plated,PTH,ComponentDrill
T5C0.0394
; #@! TA.AperFunction,Plated,PTH,ComponentDrill
T6C0.0591
; #@! TA.AperFunction,Plated,PTH,ComponentDrill
T7C0.0669
; #@! TA.AperFunction,Plated,PTH,ComponentDrill
T8C0.0670
; #@! TA.AperFunction,Plated,PTH,ComponentDrill
T9C0.0830
%
G90
G05
T1
X3.7402Y-3.7551
X3.7419Y-3.6654
X3.7598Y-3.7047
X3.7601Y-3.5447
X3.7612Y-3.5152
X3.7638Y-3.574
X3.7638Y-3.8469
X3.7642Y-3.8197
X3.7744Y-3.6664
X3.8248Y-3.8358
X3.8307Y-3.6276
X3.8378Y-3.8134
X3.8386Y-3.8575
X3.8976Y-4.1339
X3.8976Y-4.1929
X3.9173Y-4.4685
X3.937Y-4.1339
X3.937Y-4.1929
X3.9567Y-4.4685
X3.9764Y-4.1339
X3.9764Y-4.1929
X3.9961Y-4.4685
X3.9961Y-4.5472
X4.0157Y-4.1339
X4.0157Y-4.1929
X4.0354Y-4.4685
X4.0354Y-4.5472
X4.0551Y-4.1339
X4.0748Y-4.5472
X4.0767Y-4.0591
X4.0945Y-4.1339
X4.0976Y-4.0382
X4.1142Y-4.5472
X4.1185Y-4.0173
X4.1732Y-3.9567
X4.1732Y-3.9961
X4.1752Y-3.0687
X4.2276Y-3.1575
X4.2283Y-3.9567
X4.2283Y-3.9961
X4.2406Y-3.0138
X4.2413Y-4.2571
X4.2827Y-3.1559
X4.2835Y-3.9567
X4.2835Y-3.9961
X4.3126Y-3.0717
X4.3155Y-4.2534
X4.3514Y-4.2028
X4.3551Y-3.8559
X4.3701Y-4.1339
X4.4094Y-4.1339
X4.4173Y-4.6031
X4.4177Y-4.5406
X4.4201Y-4.6681
X4.5079Y-3.1024
X4.5079Y-3.937
X4.5079Y-3.9764
X4.5079Y-4.0157
X4.5433Y-3.1378
X4.5472Y-2.9134
X4.5602Y-4.5406
X4.5642Y-4.639
X4.5669Y-4.7039
X4.5787Y-3.1732
X4.5866Y-3.0315
X4.6142Y-3.2047
X4.626Y-3.0709
X4.6654Y-3.1102
X4.6772Y-3.1654
X4.685Y-2.9134
X4.7126Y-3.2047
X4.7165Y-3.6276
X4.7165Y-3.7047
X4.7205Y-3.3071
X4.7205Y-3.502
X4.7205Y-3.5906
X4.7244Y-4.0157
X4.7362Y-3.0079
X4.7409Y-4.6398
X4.752Y-3.2441
X4.7638Y-3.937
X4.7638Y-4.0157
X4.7685Y-4.7677
X4.7835Y-4.0945
X4.7913Y-3.2756
X4.7949Y-4.1354
X4.7992Y-3.5906
X4.7992Y-3.6276
X4.8031Y-3.0118
X4.8031Y-3.937
X4.8031Y-4.0157
X4.8197Y-4.7827
X4.8228Y-4.0945
X4.8307Y-3.315
X4.8307Y-3.5906
X4.8307Y-3.6276
X4.8307Y-3.7047
X4.8425Y-3.0118
X4.8425Y-3.937
X4.8425Y-4.0157
X4.8425Y-4.5866
X4.8622Y-3.5906
X4.8622Y-3.6276
X4.8622Y-3.7047
X4.8622Y-4.0945
X4.8819Y-3.0118
X4.8819Y-3.937
X4.8819Y-4.0157
X4.8819Y-4.6063
X4.8819Y-4.6457
X4.9016Y-4.0945
X4.9024Y-4.7488
X4.9083Y-3.5945
X4.9213Y-3.937
X4.9213Y-4.0157
X4.937Y-3.7047
X4.9409Y-4.0945
X4.9611Y-3.7406
X4.9783Y-3.7984
X4.9803Y-3.5866
X4.9877Y-3.7591
X5.0157Y-3.8031
X5.0197Y-3.5866
X5.0197Y-3.6276
X5.0311Y-3.7744
X5.0394Y-4.5866
X5.0575Y-3.7976
X5.0591Y-3.6276
X5.0591Y-4.4685
X5.063Y-4.1201
X5.0772Y-3.778
X5.0787Y-4.5472
X5.0984Y-3.6276
X5.0984Y-4.4291
X5.0984Y-4.5079
X5.0984Y-4.5866
X5.0984Y-4.626
X5.1043Y-3.4526
X5.1299Y-4.5866
X5.1378Y-4.4685
X5.1378Y-4.5472
X5.1657Y-2.8106
X5.1732Y-3.4528
X5.1772Y-4.4291
X5.1772Y-4.5079
X5.1992Y-4.1862
X5.2087Y-4.5827
X5.2142Y-2.7996
X5.2165Y-4.4685
X5.2264Y-3.7858
X5.2362Y-4.6142
X5.2382Y-4.1768
X5.2402Y-4.5827
X5.2441Y-3.4606
X5.2519Y-3.8222
X5.252Y-4.4094
X5.2559Y-3.9173
X5.2559Y-3.9567
X5.2559Y-3.9961
X5.2559Y-4.0354
X5.2559Y-4.0748
X5.265Y-2.8098
X5.2736Y-4.1772
X5.2756Y-4.0945
X5.2756Y-4.5472
X5.2795Y-3.8328
X5.2874Y-4.4291
X5.2953Y-3.9173
X5.2953Y-3.9567
X5.2953Y-3.9961
X5.2953Y-4.0354
X5.2953Y-4.0748
X5.2953Y-4.5866
X5.2957Y-3.8553
X5.3071Y-4.4016
X5.311Y-3.4567
X5.315Y-4.5079
X5.316Y-3.8768
X5.3262Y-4.0918
X5.3346Y-3.4803
X5.3346Y-4.0551
X5.3346Y-4.4685
X5.3346Y-4.5472
X5.341Y-3.8579
X5.3543Y-4.5866
X5.3556Y-4.0895
X5.3614Y-3.8791
X5.3622Y-3.5118
X5.3623Y-4.5045
X5.3638Y-3.3909
X5.3701Y-4.4134
X5.372Y-4.1827
X5.3728Y-4.2087
X5.3833Y-3.8586
X5.3851Y-4.0876
X5.3898Y-4.437
X5.3937Y-3.4646
X5.3937Y-4.0551
X5.3937Y-4.4685
X5.3937Y-4.5472
X5.3986Y-4.1985
X5.4008Y-3.3976
X5.4045Y-3.8791
X5.4094Y-4.4134
X5.4145Y-4.0895
X5.4195Y-4.179
X5.4242Y-3.8524
X5.4252Y-4.2024
X5.4303Y-3.4083
X5.4331Y-3.5039
X5.4331Y-4.0551
X5.4434Y-3.8762
X5.444Y-4.0902
X5.4528Y-4.8425
X5.4646Y-3.8425
X5.4713Y-3.415
X5.4796Y-4.0823
X5.4842Y-3.8197
X5.4921Y-3.2874
X5.4921Y-3.3465
X5.5004Y-3.9882
X5.5012Y-4.0236
X5.5059Y-3.8547
X5.5063Y-3.9008
X5.5074Y-4.0544
X5.511Y-3.9512
X5.5118Y-4.8425
X5.5194Y-3.8264
X5.5236Y-4.437
X5.5303Y-4.0161
X5.5315Y-3.8705
X5.5315Y-3.9291
X5.5315Y-3.974
X5.5315Y-4.4882
X5.5472Y-4.4134
X5.5654Y-4.152
X5.5709Y-4.4488
X5.5906Y-3.7126
X5.5906Y-3.7411
X5.5906Y-3.687
X5.5925Y-3.4228
X5.6063Y-3.8909
X5.6075Y-3.9774
X5.6091Y-3.9254
X5.6102Y-4.6063
X5.6114Y-4.0866
X5.612Y-3.8078
X5.612Y-3.8373
X5.6155Y-4.0354
X5.6155Y-4.1306
X5.6156Y-4.1627
X5.6299Y-3.6614
X5.639Y-4.3051
X5.6457Y-4.8516
X5.6693Y-3.622
X5.689Y-3.4843
X5.689Y-3.5433
X5.689Y-4.5472
X5.7043Y-3.6461
X5.7047Y-4.8071
X5.7087Y-3.4252
X5.7087Y-3.5827
X5.7087Y-4.311
X5.7087Y-4.3504
X5.7087Y-4.3898
X5.7126Y-4.5906
X5.7244Y-3.626
X5.7283Y-4.5079
X5.7295Y-3.7909
X5.7354Y-3.7669
X5.7362Y-4.5591
X5.7402Y-4.2323
X5.7421Y-3.813
X5.748Y-3.4646
X5.748Y-3.5433
X5.748Y-4.2913
X5.748Y-4.3701
X5.748Y-4.4291
X5.748Y-4.8425
X5.7559Y-4.811
X5.7579Y-3.7917
X5.7598Y-4.5906
X5.7677Y-4.311
X5.7744Y-3.7681
X5.7835Y-4.5591
X5.7874Y-4.1142
X5.7874Y-4.2756
X5.7874Y-4.8425
X5.8071Y-4.5906
X5.8071Y-4.8228
X5.8189Y-4.1299
X5.8228Y-4.0984
X5.8228Y-4.311
X5.8346Y-3.9528
X5.8465Y-3.6811
X5.8465Y-3.7992
X5.8465Y-4.8425
X5.8661Y-3.8583
X5.8661Y-3.8976
X5.8661Y-3.9528
X5.8661Y-4.0748
X5.8661Y-4.1535
X5.8661Y-4.8228
X5.8858Y-3.7598
X5.9016Y-3.9528
X5.9055Y-3.3465
X5.9055Y-3.8386
X5.9055Y-3.878
X5.9055Y-4.0157
X5.9055Y-4.1142
X5.9055Y-4.2323
X5.9055Y-4.5866
X5.9055Y-4.8425
X5.9252Y-4.8228
X5.937Y-3.9528
X5.9449Y-3.5827
X5.9449Y-3.7795
X5.9449Y-3.8189
X5.9449Y-3.8583
X5.9449Y-3.8976
X5.9449Y-4.0354
X5.9449Y-4.0748
X5.9449Y-4.1535
X5.9449Y-4.2717
X5.9449Y-4.3307
X5.9449Y-4.626
X5.9449Y-4.7047
X5.9646Y-3.6811
X5.9646Y-4.8425
X5.9843Y-3.7992
X5.9843Y-3.8386
X5.9843Y-3.937
X5.9843Y-4.0551
X5.9843Y-4.0945
X5.9843Y-4.311
X5.9843Y-4.6654
X6.0039Y-3.5236
X6.0039Y-4.5669
X6.0087Y-4.8236
X6.0236Y-3.6614
X6.0236Y-3.7402
X6.0236Y-3.8976
X6.0236Y-3.9764
X6.0236Y-4.0748
X6.0236Y-4.1142
X6.0236Y-4.1535
X6.0236Y-4.2323
X6.0236Y-4.3898
X6.0236Y-4.7047
X6.0264Y-4.7665
X6.0433Y-3.4843
X6.0433Y-4.5079
X6.063Y-3.6024
X6.063Y-3.7795
X6.063Y-3.937
X6.063Y-4.0157
X6.063Y-4.1339
X6.063Y-4.2717
X6.063Y-4.3504
X6.063Y-4.4291
X6.063Y-4.626
X6.0827Y-3.4449
X6.0827Y-4.3898
X6.0827Y-4.5472
X6.1024Y-3.563
X6.1024Y-3.6614
X6.1024Y-3.7402
X6.1024Y-3.8189
X6.1024Y-3.9764
X6.1024Y-4.0551
X6.1024Y-4.1535
X6.1024Y-4.2323
X6.1024Y-4.5079
X6.1024Y-4.6654
X6.1024Y-4.7835
X6.1047Y-4.8697
X6.122Y-3.8583
X6.122Y-4.3307
X6.122Y-4.5866
X6.1417Y-3.937
X6.1417Y-4.5472
X6.2205Y-3.3465
X6.3189Y-3.6417
X6.3189Y-3.7402
X6.3189Y-3.8386
X6.3189Y-3.9567
X6.3189Y-4.0354
X6.3189Y-4.1535
X6.3189Y-4.252
X6.3386Y-3.3858
X6.3386Y-3.4646
X6.3386Y-4.5866
X6.3386Y-4.6654
X6.3386Y-4.8031
X6.3583Y-3.9961
X6.378Y-3.5039
X6.378Y-3.6417
X6.378Y-3.7402
X6.378Y-3.8386
X6.378Y-3.9567
X6.378Y-4.0354
X6.378Y-4.1535
X6.378Y-4.252
X6.378Y-4.3898
X6.378Y-4.4685
X6.378Y-4.5472
X6.378Y-4.626
X6.3976Y-3.4646
X6.3976Y-4.5866
X6.3976Y-4.8031
X6.437Y-3.5039
X6.437Y-3.9567
X6.437Y-4.0354
X6.437Y-4.3898
X6.437Y-4.4685
X6.437Y-4.5472
X6.437Y-4.7638
X6.4567Y-3.4646
X6.4567Y-4.5866
X6.4567Y-4.8031
X6.4961Y-3.4252
X6.4961Y-3.5039
X6.4961Y-4.3898
X6.4961Y-4.4685
X6.4961Y-4.5472
X6.4961Y-4.7638
X6.5157Y-3.4646
X6.5157Y-4.5866
X6.5157Y-4.8031
X6.5551Y-3.5039
X6.5551Y-4.3898
X6.5551Y-4.5472
X6.5551Y-4.7638
X6.5748Y-3.4646
X6.5748Y-4.5866
X6.5748Y-4.8031
X6.6134Y-4.1535
X6.6134Y-4.2512
X6.6142Y-3.5039
X6.6142Y-3.6417
X6.6142Y-3.7402
X6.6142Y-3.8386
X6.6142Y-3.9567
X6.6142Y-4.5472
X6.6142Y-4.7638
X6.6154Y-4.0346
X6.6535Y-3.9961
X6.6535Y-4.4291
X6.6732Y-3.9567
X6.6929Y-4.3898
X6.6929Y-4.4685
X6.7126Y-4.4291
X6.7323Y-4.8622
X6.752Y-4.3898
X6.752Y-4.4685
X6.752Y-4.5472
X6.7717Y-3.0118
X6.7717Y-4.4291
X6.7717Y-4.5866
X6.7913Y-4.8031
X6.811Y-3.0512
X6.811Y-4.3898
X6.811Y-4.4685
X6.811Y-4.5472
X6.8307Y-3.4449
X6.8307Y-3.5039
X6.8307Y-3.8976
X6.8307Y-3.9567
X6.8307Y-4.0157
X6.8307Y-4.4291
X6.8504Y-3.0906
X6.8701Y-2.9134
X6.8701Y-2.9921
X6.8898Y-3.1299
X6.898Y-3.1874
X6.898Y-3.2508
X6.898Y-3.311
X6.898Y-3.3685
X6.9291Y-4.6654
X6.9685Y-2.9528
X6.9685Y-4.626
X7.0079Y-2.9921
X7.0079Y-3.0512
X7.0079Y-3.1693
X7.0079Y-3.2283
X7.0079Y-3.2874
X7.0079Y-3.3465
X7.0079Y-3.4055
X7.0079Y-3.4646
X7.0079Y-3.622
X7.0079Y-3.7205
X7.0079Y-3.7795
X7.0079Y-3.9567
X7.0079Y-4.0157
X7.0079Y-4.0748
X7.0079Y-4.1339
X7.0079Y-4.1929
X7.0079Y-4.2717
T2
X3.7004Y-3.9598
X3.7437Y-3.9598
X3.7858Y-3.9598
X3.828Y-3.9598
X3.835Y-3.0602
X3.8976Y-3.0606
X4.0244Y-3.8898
X4.0354Y-3.8555
X4.0457Y-3.6657
X4.0457Y-3.8209
X4.1453Y-4.1091
X4.2004Y-4.1083
X4.2547Y-4.1075
X4.3122Y-4.1075
X5.8475Y-3.2776
X6.5071Y-4.7214
T3
X4.3594Y-3.9634
X4.3594Y-4.0134
X4.3984Y-3.8551
X4.4094Y-3.9634
X4.4094Y-4.0134
X4.4189Y-4.8272
X4.4594Y-3.9634
X4.4594Y-4.0134
X4.4689Y-4.8272
X4.5189Y-4.8272
X4.5539Y-3.9642
X4.5539Y-4.0142
X4.5689Y-4.8272
X4.6039Y-3.9642
X4.6039Y-4.0142
X4.6539Y-3.9642
X4.6539Y-4.0142
X4.8472Y-4.8894
X5.3583Y-4.8839
X5.5315Y-3.1874
X5.5315Y-3.2374
X5.5815Y-3.1874
X5.5815Y-3.2374
X7.0209Y-3.5626
X7.0209Y-4.3189
T4
X4.9934Y-3.8552
X4.9934Y-3.9143
X4.9934Y-3.9733
X4.9934Y-4.0324
X4.9934Y-4.0914
X5.0524Y-3.8355
X5.0524Y-3.8946
X5.0524Y-3.9536
X5.0524Y-4.0127
X5.0524Y-4.0718
X5.1114Y-3.8158
X5.1114Y-3.8749
X5.1114Y-3.934
X5.1114Y-3.993
X5.1114Y-4.0521
X5.1114Y-4.1111
X5.2433Y-3.689
X5.2433Y-4.2481
X5.263Y-3.5709
X5.263Y-4.3071
X5.2827Y-3.63
X5.2827Y-4.3661
X5.3024Y-3.689
X5.3024Y-4.2481
X5.322Y-3.5709
X5.322Y-4.3071
X5.3417Y-3.63
X5.3417Y-4.3661
X5.3614Y-3.689
X5.3614Y-4.2481
X5.3811Y-3.5709
X5.3811Y-4.3071
X5.4008Y-3.63
X5.4008Y-4.3661
X5.4205Y-3.689
X5.4205Y-4.2481
X5.4402Y-3.5709
X5.4402Y-4.3071
X5.4598Y-3.63
X5.4598Y-4.3661
X5.4795Y-3.689
X5.4795Y-4.2481
X5.4992Y-3.5709
X5.4992Y-4.3071
X5.5189Y-3.63
X5.5189Y-4.3661
X5.5386Y-3.689
X5.5386Y-4.2481
X5.6704Y-3.8158
X5.6704Y-3.8749
X5.6704Y-3.934
X5.6704Y-3.993
X5.6704Y-4.0521
X5.6704Y-4.1111
X5.7295Y-3.8552
X5.7295Y-3.9143
X5.7295Y-3.9733
X5.7295Y-4.0324
X5.7295Y-4.0914
X5.7885Y-3.8355
X5.7885Y-3.8946
X5.7885Y-3.9536
X5.7885Y-4.0127
X5.7885Y-4.0718
T5
X3.8157Y-2.8567
X3.8157Y-2.9567
X3.9157Y-2.8567
X3.9157Y-2.9567
X4.0157Y-2.8567
X4.0157Y-2.9567
X4.0799Y-4.2319
X4.0799Y-4.3319
X4.0799Y-4.4319
X4.1157Y-2.8567
X4.1157Y-2.9567
X4.2157Y-2.8567
X4.2157Y-2.9567
X4.3157Y-2.8567
X4.3157Y-2.9567
X4.4157Y-2.8567
X4.4157Y-2.9567
X4.5157Y-2.8567
X4.5157Y-2.9567
X4.6157Y-2.8567
X4.6157Y-2.9567
X4.6886Y-4.5909
X4.6886Y-4.6909
X4.6886Y-4.7909
X4.7157Y-2.8567
X4.7157Y-2.9567
X4.8157Y-2.8567
X4.8157Y-2.9567
X4.9157Y-2.8567
X4.9157Y-2.9567
X4.9587Y-4.6657
X4.9587Y-4.7657
X5.0157Y-2.8567
X5.0157Y-2.9567
X5.0587Y-4.6657
X5.0587Y-4.7657
X5.1157Y-2.8567
X5.1157Y-2.9567
X5.1587Y-4.6657
X5.1587Y-4.7657
X5.2157Y-2.8567
X5.2157Y-2.9567
X5.2587Y-4.6657
X5.2587Y-4.7657
X5.3157Y-2.8567
X5.3157Y-2.9567
X5.3587Y-4.6657
X5.3587Y-4.7657
X5.4157Y-2.8567
X5.4157Y-2.9567
X5.4587Y-4.6657
X5.4587Y-4.7657
X5.5157Y-2.8567
X5.5157Y-2.9567
X5.5587Y-4.6657
X5.5587Y-4.7657
X5.6157Y-2.8567
X5.6157Y-2.9567
X5.6587Y-4.6657
X5.6587Y-4.7657
X5.7157Y-2.8567
X5.7157Y-2.9567
X5.7587Y-4.6657
X5.7587Y-4.7657
X5.8157Y-2.8567
X5.8157Y-2.9567
X5.8587Y-4.6657
X5.8587Y-4.7657
X5.9157Y-2.8567
X5.9157Y-2.9567
X6.0157Y-2.8567
X6.0157Y-2.9567
X6.1157Y-2.8567
X6.1157Y-2.9567
X6.1744Y-3.2929
X6.1744Y-3.3929
X6.1744Y-3.4929
X6.1744Y-3.5929
X6.1744Y-3.6929
X6.1744Y-3.7929
X6.1744Y-3.8929
X6.1744Y-3.9929
X6.1744Y-4.0929
X6.1744Y-4.1929
X6.1744Y-4.2929
X6.1744Y-4.3929
X6.1744Y-4.4929
X6.1744Y-4.5929
X6.1744Y-4.6929
X6.1744Y-4.7929
X6.2157Y-2.8567
X6.2157Y-2.9567
X6.2744Y-3.2929
X6.2744Y-3.3929
X6.2744Y-3.4929
X6.2744Y-3.5929
X6.2744Y-3.6929
X6.2744Y-3.7929
X6.2744Y-3.8929
X6.2744Y-3.9929
X6.2744Y-4.0929
X6.2744Y-4.1929
X6.2744Y-4.2929
X6.2744Y-4.3929
X6.2744Y-4.4929
X6.2744Y-4.5929
X6.2744Y-4.6929
X6.2744Y-4.7929
X6.3157Y-2.8567
X6.3157Y-2.9567
X6.4157Y-2.8567
X6.4157Y-2.9567
X6.5157Y-2.8567
X6.5157Y-2.9567
X6.6157Y-2.8567
X6.6157Y-2.9567
X6.674Y-4.5295
X6.674Y-4.6295
X6.674Y-4.7295
X6.7031Y-3.6228
X6.7031Y-3.7228
X6.7031Y-3.8228
X6.7055Y-4.05
X6.7055Y-4.15
X6.7055Y-4.25
X6.7157Y-2.8567
X6.7157Y-2.9567
X6.8157Y-2.8567
X6.8157Y-2.9567
X6.9157Y-2.8567
X6.9157Y-2.9567
T6
X3.8413Y-4.1642
X3.8429Y-4.5035
X5.1689Y-3.1953
T7
X3.7413Y-4.0642
X3.7413Y-4.2642
X3.7429Y-4.4035
X3.7429Y-4.6035
X3.9413Y-4.0642
X3.9413Y-4.2642
X3.9429Y-4.4035
X3.9429Y-4.6035
X5.0689Y-3.0953
X5.0689Y-3.2953
X5.2689Y-3.0953
X5.2689Y-3.2953
T8
X5.3909Y-3.9635
T9
X4.8594Y-4.495
X5.9224Y-3.432
M30
