%TF.GenerationSoftware,KiCad,Pcbnew,9.0.4-9.0.4-0~ubuntu22.04.1*%
%TF.CreationDate,2025-10-03T17:43:01+02:00*%
%TF.ProjectId,heepidermis-bo,68656570-6964-4657-926d-69732d626f2e,rev?*%
%TF.SameCoordinates,Original*%
%TF.FileFunction,Soldermask,Bot*%
%TF.FilePolarity,Negative*%
%FSLAX46Y46*%
G04 Gerber Fmt 4.6, Leading zero omitted, Abs format (unit mm)*
G04 Created by KiCad (PCBNEW 9.0.4-9.0.4-0~ubuntu22.04.1) date 2025-10-03 17:43:01*
%MOMM*%
%LPD*%
G01*
G04 APERTURE LIST*
G04 Aperture macros list*
%AMRoundRect*
0 Rectangle with rounded corners*
0 $1 Rounding radius*
0 $2 $3 $4 $5 $6 $7 $8 $9 X,Y pos of 4 corners*
0 Add a 4 corners polygon primitive as box body*
4,1,4,$2,$3,$4,$5,$6,$7,$8,$9,$2,$3,0*
0 Add four circle primitives for the rounded corners*
1,1,$1+$1,$2,$3*
1,1,$1+$1,$4,$5*
1,1,$1+$1,$6,$7*
1,1,$1+$1,$8,$9*
0 Add four rect primitives between the rounded corners*
20,1,$1+$1,$2,$3,$4,$5,0*
20,1,$1+$1,$4,$5,$6,$7,0*
20,1,$1+$1,$6,$7,$8,$9,0*
20,1,$1+$1,$8,$9,$2,$3,0*%
G04 Aperture macros list end*
%ADD10R,1.000000X1.000000*%
%ADD11O,1.000000X1.000000*%
%ADD12R,1.700000X1.700000*%
%ADD13O,1.700000X1.700000*%
%ADD14C,0.700000*%
%ADD15C,1.092200*%
%ADD16C,2.209800*%
%ADD17C,2.616200*%
%ADD18C,2.050000*%
%ADD19C,2.250000*%
%ADD20RoundRect,0.135000X-0.185000X0.135000X-0.185000X-0.135000X0.185000X-0.135000X0.185000X0.135000X0*%
%ADD21RoundRect,0.135000X0.135000X0.185000X-0.135000X0.185000X-0.135000X-0.185000X0.135000X-0.185000X0*%
G04 APERTURE END LIST*
D10*
%TO.C,J21*%
X123120000Y-124190000D03*
%TD*%
D11*
%TO.C,J37*%
X116050000Y-122610000D03*
X114780000Y-122610000D03*
X113510000Y-122610000D03*
D10*
X112240000Y-122610000D03*
%TD*%
D12*
%TO.C,J13*%
X170260000Y-92020000D03*
D13*
X170260000Y-94560000D03*
X170260000Y-97100000D03*
%TD*%
D14*
%TO.C,J30*%
X165280000Y-119922500D03*
%TD*%
D10*
%TO.C,J22*%
X136100000Y-124050000D03*
%TD*%
%TO.C,J5*%
X118210000Y-100690000D03*
D11*
X118210000Y-101960000D03*
X116940000Y-100690000D03*
X116940000Y-101960000D03*
X115670000Y-100690000D03*
X115670000Y-101960000D03*
%TD*%
D12*
%TO.C,J23*%
X96920000Y-75100000D03*
D13*
X96920000Y-72560000D03*
X99460000Y-75100000D03*
X99460000Y-72560000D03*
X102000000Y-75100000D03*
X102000000Y-72560000D03*
X104540000Y-75100000D03*
X104540000Y-72560000D03*
X107080000Y-75100000D03*
X107080000Y-72560000D03*
X109620000Y-75100000D03*
X109620000Y-72560000D03*
X112160000Y-75100000D03*
X112160000Y-72560000D03*
X114700000Y-75100000D03*
X114700000Y-72560000D03*
X117240000Y-75100000D03*
X117240000Y-72560000D03*
X119780000Y-75100000D03*
X119780000Y-72560000D03*
X122320000Y-75100000D03*
X122320000Y-72560000D03*
X124860000Y-75100000D03*
X124860000Y-72560000D03*
X127400000Y-75100000D03*
X127400000Y-72560000D03*
X129940000Y-75100000D03*
X129940000Y-72560000D03*
X132480000Y-75100000D03*
X132480000Y-72560000D03*
X135020000Y-75100000D03*
X135020000Y-72560000D03*
X137560000Y-75100000D03*
X137560000Y-72560000D03*
X140100000Y-75100000D03*
X140100000Y-72560000D03*
X142640000Y-75100000D03*
X142640000Y-72560000D03*
X145180000Y-75100000D03*
X145180000Y-72560000D03*
X147720000Y-75100000D03*
X147720000Y-72560000D03*
X150260000Y-75100000D03*
X150260000Y-72560000D03*
X152800000Y-75100000D03*
X152800000Y-72560000D03*
X155340000Y-75100000D03*
X155340000Y-72560000D03*
X157880000Y-75100000D03*
X157880000Y-72560000D03*
X160420000Y-75100000D03*
X160420000Y-72560000D03*
X162960000Y-75100000D03*
X162960000Y-72560000D03*
X165500000Y-75100000D03*
X165500000Y-72560000D03*
X168040000Y-75100000D03*
X168040000Y-72560000D03*
X170580000Y-75100000D03*
X170580000Y-72560000D03*
X173120000Y-75100000D03*
X173120000Y-72560000D03*
X175660000Y-75100000D03*
X175660000Y-72560000D03*
%TD*%
D14*
%TO.C,J16*%
X105290000Y-104370000D03*
%TD*%
D12*
%TO.C,J7*%
X103630000Y-107490000D03*
D13*
X103630000Y-110030000D03*
X103630000Y-112570000D03*
%TD*%
D14*
%TO.C,J36*%
X102760000Y-93110000D03*
%TD*%
D10*
%TO.C,J18*%
X178330000Y-109700000D03*
%TD*%
D12*
%TO.C,J12*%
X170320000Y-102870000D03*
D13*
X170320000Y-105410000D03*
X170320000Y-107950000D03*
%TD*%
D12*
%TO.C,J17*%
X148810000Y-118510000D03*
D13*
X148810000Y-121050000D03*
X146270000Y-118510000D03*
X146270000Y-121050000D03*
X143730000Y-118510000D03*
X143730000Y-121050000D03*
X141190000Y-118510000D03*
X141190000Y-121050000D03*
X138650000Y-118510000D03*
X138650000Y-121050000D03*
X136110000Y-118510000D03*
X136110000Y-121050000D03*
X133570000Y-118510000D03*
X133570000Y-121050000D03*
X131030000Y-118510000D03*
X131030000Y-121050000D03*
X128490000Y-118510000D03*
X128490000Y-121050000D03*
X125950000Y-118510000D03*
X125950000Y-121050000D03*
%TD*%
D14*
%TO.C,J26*%
X97230000Y-100580000D03*
%TD*%
%TO.C,J34*%
X102500000Y-97930000D03*
%TD*%
D10*
%TO.C,J6*%
X113270000Y-100670000D03*
D11*
X113270000Y-101940000D03*
X112000000Y-100670000D03*
X112000000Y-101940000D03*
X110730000Y-100670000D03*
X110730000Y-101940000D03*
%TD*%
D15*
%TO.C,HEEPidermis1*%
X129830700Y-96922500D03*
X128331100Y-97422499D03*
X126831500Y-97922501D03*
X129830700Y-98422500D03*
X128331100Y-98922501D03*
X126831500Y-99422500D03*
X129830700Y-99922499D03*
X128331100Y-100422501D03*
X126831500Y-100922500D03*
X129830700Y-101422501D03*
X128331100Y-101922500D03*
X126831500Y-102422499D03*
X129830700Y-102922501D03*
X128331100Y-103422500D03*
X126831500Y-103922501D03*
X129830700Y-104422500D03*
X133180000Y-107900501D03*
X133679999Y-109400101D03*
X134180000Y-110899701D03*
X134679999Y-107900501D03*
X135180001Y-109400101D03*
X135680000Y-110899701D03*
X136179999Y-107900501D03*
X136680001Y-109400101D03*
X137180000Y-110899701D03*
X137680001Y-107900501D03*
X138180000Y-109400101D03*
X138679999Y-110899701D03*
X139180001Y-107900501D03*
X139680000Y-109400101D03*
X140180001Y-110899701D03*
X140680000Y-107900501D03*
X144029300Y-104422500D03*
X145528900Y-103922501D03*
X147028500Y-103422500D03*
X144029300Y-102922501D03*
X145528900Y-102422499D03*
X147028500Y-101922500D03*
X144029300Y-101422501D03*
X145528900Y-100922500D03*
X147028500Y-100422501D03*
X144029300Y-99922499D03*
X145528900Y-99422500D03*
X147028500Y-98922501D03*
X144029300Y-98422500D03*
X145528900Y-97922501D03*
X147028500Y-97422499D03*
X144029300Y-96922500D03*
X140680000Y-93700499D03*
X140180001Y-92200899D03*
X139680000Y-90701299D03*
X139180001Y-93700499D03*
X138679999Y-92200899D03*
X138180000Y-90701299D03*
X137680001Y-93700499D03*
X137179999Y-92200899D03*
X136680000Y-90701299D03*
X136179999Y-93700499D03*
X135680000Y-92200899D03*
X135180001Y-90701299D03*
X134679999Y-93700499D03*
X134180000Y-92200899D03*
X133679999Y-90701299D03*
X133180000Y-93700499D03*
D16*
X136930000Y-100672500D03*
D17*
X123429900Y-114172600D03*
X150430100Y-87172400D03*
%TD*%
D14*
%TO.C,J35*%
X102220000Y-98800000D03*
%TD*%
%TO.C,J32*%
X99000000Y-77740000D03*
%TD*%
%TO.C,J29*%
X148527500Y-83250000D03*
%TD*%
D10*
%TO.C,J8*%
X140500000Y-82230000D03*
D11*
X140500000Y-80959999D03*
X141770001Y-82230000D03*
X141770000Y-80960000D03*
%TD*%
D18*
%TO.C,J10*%
X97570000Y-105770000D03*
D19*
X95030000Y-103230000D03*
X95030000Y-108310000D03*
X100110000Y-103230000D03*
X100110000Y-108310000D03*
%TD*%
D14*
%TO.C,J3*%
X108070000Y-104330000D03*
%TD*%
D18*
%TO.C,J11*%
X131290000Y-81160000D03*
D19*
X128750000Y-78620000D03*
X128750000Y-83700000D03*
X133830000Y-78620000D03*
X133830000Y-83700000D03*
%TD*%
D10*
%TO.C,J14*%
X178330000Y-90490000D03*
%TD*%
D14*
%TO.C,J33*%
X102760000Y-97050000D03*
%TD*%
%TO.C,J4*%
X106690000Y-104350000D03*
%TD*%
%TO.C,J28*%
X95090000Y-100580000D03*
%TD*%
D18*
%TO.C,J9*%
X97610000Y-114390000D03*
D19*
X95070000Y-111850000D03*
X95070000Y-116930000D03*
X100150000Y-111850000D03*
X100150000Y-116930000D03*
%TD*%
D12*
%TO.C,J15*%
X156830000Y-83640000D03*
D13*
X159370000Y-83640000D03*
X156830000Y-86180000D03*
X159370000Y-86180000D03*
X156830000Y-88720000D03*
X159370000Y-88720000D03*
X156830000Y-91260000D03*
X159370000Y-91260000D03*
X156830000Y-93800000D03*
X159370000Y-93800000D03*
X156830000Y-96340000D03*
X159370000Y-96340000D03*
X156830000Y-98880000D03*
X159370000Y-98880000D03*
X156830000Y-101420000D03*
X159370000Y-101420000D03*
X156830000Y-103960000D03*
X159370000Y-103960000D03*
X156830000Y-106500000D03*
X159370000Y-106500000D03*
X156830000Y-109040000D03*
X159370000Y-109040000D03*
X156830000Y-111580000D03*
X159370000Y-111580000D03*
X156830000Y-114120000D03*
X159370000Y-114120000D03*
X156830000Y-116660000D03*
X159370000Y-116660000D03*
X156830000Y-119200000D03*
X159370000Y-119200000D03*
X156830000Y-121740000D03*
X159370000Y-121740000D03*
%TD*%
D10*
%TO.C,J1*%
X111720000Y-97920000D03*
%TD*%
D12*
%TO.C,J20*%
X119090000Y-121690000D03*
D13*
X119090000Y-119150000D03*
X119090000Y-116610000D03*
%TD*%
D14*
%TO.C,J25*%
X96160000Y-100580000D03*
%TD*%
%TO.C,J27*%
X93990000Y-100580000D03*
%TD*%
D12*
%TO.C,J19*%
X169520000Y-115050000D03*
D13*
X169520000Y-117590000D03*
X169520000Y-120130000D03*
%TD*%
D14*
%TO.C,J24*%
X109530000Y-104330000D03*
%TD*%
%TO.C,J31*%
X97410000Y-77730000D03*
%TD*%
D20*
%TO.C,R2*%
X130530000Y-92110000D03*
X130530000Y-93130000D03*
%TD*%
D21*
%TO.C,R1*%
X130580000Y-93110000D03*
X129560000Y-93110000D03*
%TD*%
D20*
%TO.C,R3*%
X131220000Y-78600000D03*
X131220000Y-79620000D03*
%TD*%
M02*
